<?xml version="1.0" encoding="UTF-8" standalone="no"?><!DOCTYPE svg PUBLIC "-//W3C//DTD SVG 1.1//EN" "http://www.w3.org/Graphics/SVG/1.1/DTD/svg11.dtd"><svg width="300" height="170" viewBox="0 0 300 170" version="1.1" xmlns="http://www.w3.org/2000/svg" xmlns:xlink="http://www.w3.org/1999/xlink" xml:space="preserve" xmlns:serif="http://www.serif.com/" style="fill-rule:evenodd;clip-rule:evenodd;stroke-linejoin:round;stroke-miterlimit:1.41421;"><g><rect x="32.96" y="3.87" width="11.97" height="67.26" style="fill:#313131;fill-rule:nonzero;"/><path d="M73.335,14.32l-20.615,0l0,-10.45l53.2,0l0,10.45l-20.615,0l0,56.81l-11.97,0l0,-56.81Z" style="fill:#313131;fill-rule:nonzero;"/><path d="M116.94,3.87l11.02,0l-8.075,25.08l-9.595,0l6.65,-25.08Z" style="fill:#313131;fill-rule:nonzero;"/><path d="M173.655,17.93c-1.267,-1.647 -3.056,-3.024 -5.367,-4.132c-2.312,-1.109 -4.64,-1.663 -6.983,-1.663c-1.393,0 -2.787,0.174 -4.18,0.523c-1.393,0.348 -2.66,0.886 -3.8,1.615c-1.14,0.728 -2.074,1.678 -2.803,2.85c-0.728,1.171 -1.092,2.58 -1.092,4.227c0,1.52 0.317,2.818 0.95,3.895c0.633,1.077 1.504,1.995 2.613,2.755c1.108,0.76 2.454,1.425 4.037,1.995c1.583,0.57 3.325,1.14 5.225,1.71c2.153,0.697 4.386,1.488 6.698,2.375c2.311,0.887 4.433,2.058 6.365,3.515c1.931,1.457 3.515,3.293 4.75,5.51c1.235,2.217 1.852,4.972 1.852,8.265c0,3.61 -0.665,6.761 -1.995,9.453c-1.33,2.691 -3.103,4.924 -5.32,6.697c-2.217,1.773 -4.813,3.103 -7.79,3.99c-2.977,0.887 -6.112,1.33 -9.405,1.33c-4.37,0 -8.645,-0.807 -12.825,-2.422c-4.18,-1.615 -7.6,-4.006 -10.26,-7.173l8.55,-7.98c1.647,2.28 3.847,4.085 6.602,5.415c2.755,1.33 5.463,1.995 8.123,1.995c1.393,0 2.818,-0.174 4.275,-0.522c1.457,-0.349 2.771,-0.935 3.942,-1.758c1.172,-0.823 2.122,-1.852 2.85,-3.087c0.729,-1.235 1.093,-2.771 1.093,-4.608c0,-1.773 -0.412,-3.246 -1.235,-4.417c-0.823,-1.172 -1.932,-2.185 -3.325,-3.04c-1.393,-0.855 -3.04,-1.6 -4.94,-2.233c-1.9,-0.633 -3.895,-1.298 -5.985,-1.995c-2.027,-0.633 -4.053,-1.393 -6.08,-2.28c-2.027,-0.887 -3.847,-2.058 -5.462,-3.515c-1.615,-1.457 -2.93,-3.246 -3.943,-5.367c-1.013,-2.122 -1.52,-4.766 -1.52,-7.933c0,-3.42 0.713,-6.365 2.138,-8.835c1.424,-2.47 3.293,-4.512 5.605,-6.127c2.311,-1.615 4.94,-2.819 7.885,-3.61c2.945,-0.792 5.937,-1.188 8.977,-1.188c3.42,0 6.888,0.602 10.403,1.805c3.515,1.203 6.57,3.008 9.167,5.415l-7.79,8.55Z" style="fill:#313131;fill-rule:nonzero;"/><path d="M237.02,3.87l10.355,0l28.975,67.26l-13.68,0l-6.27,-15.39l-29.165,0l-6.08,15.39l-13.395,0l29.26,-67.26Zm15.2,41.61l-10.355,-27.36l-10.545,27.36l20.9,0Z" style="fill:#313131;fill-rule:nonzero;"/><path d="M1.61,98.87l11.97,0l0,56.62l28.595,0l0,10.64l-40.565,0l0,-67.26Z" style="fill:#313131;fill-rule:nonzero;"/><path d="M44.075,132.31c0,-5.383 0.903,-10.244 2.707,-14.582c1.806,-4.339 4.307,-8.028 7.506,-11.068c3.198,-3.04 6.998,-5.383 11.399,-7.03c4.402,-1.647 9.2,-2.47 14.393,-2.47c5.257,0 10.102,0.823 14.535,2.47c4.433,1.647 8.265,3.99 11.495,7.03c3.23,3.04 5.747,6.729 7.552,11.067c1.805,4.339 2.708,9.2 2.708,14.583c0,5.257 -0.903,10.054 -2.708,14.392c-1.805,4.339 -4.322,8.076 -7.552,11.211c-3.23,3.135 -7.062,5.573 -11.495,7.315c-4.433,1.741 -9.278,2.612 -14.535,2.612c-5.193,0 -9.991,-0.871 -14.393,-2.612c-4.401,-1.742 -8.201,-4.18 -11.4,-7.315c-3.198,-3.136 -5.7,-6.872 -7.505,-11.211c-1.805,-4.338 -2.707,-9.135 -2.707,-14.392Zm13.015,0c0,3.61 0.554,6.919 1.663,9.928c1.108,3.008 2.691,5.62 4.749,7.837c2.059,2.217 4.497,3.943 7.316,5.178c2.818,1.235 5.937,1.852 9.357,1.852c3.42,0 6.555,-0.617 9.405,-1.852c2.85,-1.235 5.304,-2.961 7.362,-5.178c2.059,-2.217 3.642,-4.829 4.751,-7.837c1.108,-3.009 1.662,-6.318 1.662,-9.928c0,-3.483 -0.554,-6.713 -1.663,-9.69c-1.108,-2.977 -2.675,-5.573 -4.702,-7.79c-2.027,-2.217 -4.465,-3.958 -7.315,-5.225c-2.85,-1.267 -6.017,-1.9 -9.5,-1.9c-3.483,0 -6.634,0.633 -9.453,1.9c-2.818,1.267 -5.24,3.008 -7.267,5.225c-2.027,2.217 -3.594,4.813 -4.703,7.79c-1.108,2.977 -1.662,6.207 -1.662,9.69Z" style="fill:#313131;fill-rule:nonzero;"/><path d="M186.86,162.615c-3.42,1.647 -7.173,2.929 -11.257,3.847c-4.086,0.919 -8.788,1.378 -14.108,1.378c-5.447,0 -10.418,-0.871 -14.915,-2.613c-4.497,-1.741 -8.36,-4.18 -11.59,-7.315c-3.23,-3.135 -5.748,-6.871 -7.553,-11.21c-1.805,-4.338 -2.707,-9.135 -2.707,-14.392c0,-5.383 0.934,-10.244 2.802,-14.583c1.869,-4.338 4.434,-8.027 7.695,-11.067c3.262,-3.04 7.11,-5.383 11.543,-7.03c4.433,-1.647 9.247,-2.47 14.44,-2.47c5.383,0 10.307,0.776 14.772,2.327c4.465,1.552 8.06,3.595 10.783,6.128l-8.265,8.93c-1.71,-1.9 -4.101,-3.515 -7.173,-4.845c-3.071,-1.33 -6.412,-1.995 -10.022,-1.995c-3.547,0 -6.761,0.633 -9.642,1.9c-2.882,1.267 -5.336,3.008 -7.363,5.225c-2.027,2.217 -3.594,4.813 -4.702,7.79c-1.109,2.977 -1.663,6.207 -1.663,9.69c0,3.61 0.554,6.919 1.663,9.927c1.108,3.009 2.691,5.621 4.75,7.838c2.058,2.217 4.56,3.942 7.505,5.177c2.945,1.236 6.285,1.853 10.022,1.853c5.13,0 9.595,-0.792 13.395,-2.375l0,-17.1l-14.155,0l0,-9.88l25.745,0l0,34.865Z" style="fill:#313131;fill-rule:nonzero;"/><path d="M198.165,132.31c0,-5.383 0.903,-10.244 2.708,-14.582c1.805,-4.339 4.306,-8.028 7.505,-11.068c3.198,-3.04 6.998,-5.383 11.399,-7.03c4.402,-1.647 9.2,-2.47 14.393,-2.47c5.257,0 10.102,0.823 14.535,2.47c4.433,1.647 8.265,3.99 11.495,7.03c3.23,3.04 5.748,6.729 7.553,11.067c1.805,4.339 2.707,9.2 2.707,14.583c0,5.257 -0.902,10.054 -2.707,14.392c-1.805,4.339 -4.323,8.076 -7.553,11.211c-3.23,3.135 -7.062,5.573 -11.495,7.315c-4.433,1.741 -9.278,2.612 -14.535,2.612c-5.193,0 -9.991,-0.871 -14.393,-2.612c-4.401,-1.742 -8.201,-4.18 -11.399,-7.315c-3.199,-3.136 -5.7,-6.872 -7.505,-11.211c-1.805,-4.338 -2.708,-9.135 -2.708,-14.392Zm13.015,0c0,3.61 0.554,6.919 1.663,9.928c1.108,3.008 2.691,5.62 4.749,7.837c2.059,2.217 4.497,3.943 7.316,5.178c2.818,1.235 5.937,1.852 9.357,1.852c3.42,0 6.555,-0.617 9.405,-1.852c2.85,-1.235 5.304,-2.961 7.363,-5.178c2.058,-2.217 3.641,-4.829 4.75,-7.837c1.108,-3.009 1.662,-6.318 1.662,-9.928c0,-3.483 -0.554,-6.713 -1.662,-9.69c-1.109,-2.977 -2.676,-5.573 -4.703,-7.79c-2.027,-2.217 -4.465,-3.958 -7.315,-5.225c-2.85,-1.267 -6.017,-1.9 -9.5,-1.9c-3.483,0 -6.634,0.633 -9.452,1.9c-2.819,1.267 -5.241,3.008 -7.268,5.225c-2.027,2.217 -3.594,4.813 -4.702,7.79c-1.109,2.977 -1.663,6.207 -1.663,9.69Z" style="fill:#313131;fill-rule:nonzero;"/><path d="M296.49,145.04l-11.4,0l0,-46.17l11.4,0l0,46.17Zm-13.3,14.44c0,-2.027 0.744,-3.768 2.233,-5.225c1.488,-1.457 3.277,-2.185 5.367,-2.185c2.027,0 3.8,0.697 5.32,2.09c1.52,1.393 2.28,3.103 2.28,5.13c0,2.027 -0.744,3.768 -2.233,5.225c-1.488,1.457 -3.277,2.185 -5.367,2.185c-1.013,0 -1.979,-0.19 -2.897,-0.57c-0.919,-0.38 -1.726,-0.887 -2.423,-1.52c-0.697,-0.633 -1.251,-1.393 -1.662,-2.28c-0.412,-0.887 -0.618,-1.837 -0.618,-2.85Z" style="fill:#313131;fill-rule:nonzero;"/></g></svg>
